# Tiled2Unity generated file. Do not modify by hand.
# Wavefront file for 'RoomTest_mesh_0003.obj'

# Vertices (Count = 292)
v -240 -40 0
v -260 -40 0
v -260 -20 0
v -240 -20 0
v -260 -40 0
v -280 -40 0
v -280 -20 0
v -260 -20 0
v -280 -40 0
v -300 -40 0
v -300 -20 0
v -280 -20 0
v -300 -40 0
v -320 -40 0
v -320 -20 0
v -300 -20 0
v -460 -40 0
v -480 -40 0
v -480 -20 0
v -460 -20 0
v -480 -40 0
v -500 -40 0
v -500 -20 0
v -480 -20 0
v -500 -40 0
v -520 -40 0
v -520 -20 0
v -500 -20 0
v -520 -40 0
v -540 -40 0
v -540 -20 0
v -520 -20 0
v -240 -60 0
v -260 -60 0
v -260 -40 0
v -240 -40 0
v -260 -60 0
v -280 -60 0
v -280 -40 0
v -260 -40 0
v -280 -60 0
v -300 -60 0
v -300 -40 0
v -280 -40 0
v -300 -60 0
v -320 -60 0
v -320 -40 0
v -300 -40 0
v -460 -60 0
v -480 -60 0
v -480 -40 0
v -460 -40 0
v -480 -60 0
v -500 -60 0
v -500 -40 0
v -480 -40 0
v -500 -60 0
v -520 -60 0
v -520 -40 0
v -500 -40 0
v -520 -60 0
v -540 -60 0
v -540 -40 0
v -520 -40 0
v -20 -80 0
v -40 -80 0
v -40 -60 0
v -20 -60 0
v -60 -80 0
v -80 -80 0
v -80 -60 0
v -60 -60 0
v -80 -80 0
v -100 -80 0
v -100 -60 0
v -80 -60 0
v -100 -80 0
v -120 -80 0
v -120 -60 0
v -100 -60 0
v -40 -100 0
v -60 -100 0
v -60 -80 0
v -40 -80 0
v -60 -100 0
v -80 -100 0
v -80 -80 0
v -60 -80 0
v -80 -100 0
v -100 -100 0
v -100 -80 0
v -80 -80 0
v -100 -100 0
v -120 -100 0
v -120 -80 0
v -100 -80 0
v -40 -120 0
v -60 -120 0
v -60 -100 0
v -40 -100 0
v -60 -120 0
v -80 -120 0
v -80 -100 0
v -60 -100 0
v -80 -120 0
v -100 -120 0
v -100 -100 0
v -80 -100 0
v -100 -120 0
v -120 -120 0
v -120 -100 0
v -100 -100 0
v -60 -140 0
v -80 -140 0
v -80 -120 0
v -60 -120 0
v -80 -140 0
v -100 -140 0
v -100 -120 0
v -80 -120 0
v -100 -140 0
v -120 -140 0
v -120 -120 0
v -100 -120 0
v -60 -160 0
v -80 -160 0
v -80 -140 0
v -60 -140 0
v -80 -160 0
v -100 -160 0
v -100 -140 0
v -80 -140 0
v -100 -160 0
v -120 -160 0
v -120 -140 0
v -100 -140 0
v -20 -180 0
v -40 -180 0
v -40 -160 0
v -20 -160 0
v -60 -180 0
v -80 -180 0
v -80 -160 0
v -60 -160 0
v -80 -180 0
v -100 -180 0
v -100 -160 0
v -80 -160 0
v -100 -180 0
v -120 -180 0
v -120 -160 0
v -100 -160 0
v -60 -200 0
v -80 -200 0
v -80 -180 0
v -60 -180 0
v -80 -200 0
v -100 -200 0
v -100 -180 0
v -80 -180 0
v -100 -200 0
v -120 -200 0
v -120 -180 0
v -100 -180 0
v -20 -220 0
v -40 -220 0
v -40 -200 0
v -20 -200 0
v -60 -220 0
v -80 -220 0
v -80 -200 0
v -60 -200 0
v -80 -220 0
v -100 -220 0
v -100 -200 0
v -80 -200 0
v -100 -220 0
v -120 -220 0
v -120 -200 0
v -100 -200 0
v -60 -240 0
v -80 -240 0
v -80 -220 0
v -60 -220 0
v -80 -240 0
v -100 -240 0
v -100 -220 0
v -80 -220 0
v -100 -240 0
v -120 -240 0
v -120 -220 0
v -100 -220 0
v -40 -260 0
v -60 -260 0
v -60 -240 0
v -40 -240 0
v -60 -260 0
v -80 -260 0
v -80 -240 0
v -60 -240 0
v -80 -260 0
v -100 -260 0
v -100 -240 0
v -80 -240 0
v -100 -260 0
v -120 -260 0
v -120 -240 0
v -100 -240 0
v -60 -280 0
v -80 -280 0
v -80 -260 0
v -60 -260 0
v -80 -280 0
v -100 -280 0
v -100 -260 0
v -80 -260 0
v -100 -280 0
v -120 -280 0
v -120 -260 0
v -100 -260 0
v -40 -300 0
v -60 -300 0
v -60 -280 0
v -40 -280 0
v -60 -300 0
v -80 -300 0
v -80 -280 0
v -60 -280 0
v -80 -300 0
v -100 -300 0
v -100 -280 0
v -80 -280 0
v -100 -300 0
v -120 -300 0
v -120 -280 0
v -100 -280 0
v -40 -320 0
v -60 -320 0
v -60 -300 0
v -40 -300 0
v -60 -320 0
v -80 -320 0
v -80 -300 0
v -60 -300 0
v -80 -320 0
v -100 -320 0
v -100 -300 0
v -80 -300 0
v -100 -320 0
v -120 -320 0
v -120 -300 0
v -100 -300 0
v -60 -340 0
v -80 -340 0
v -80 -320 0
v -60 -320 0
v -80 -340 0
v -100 -340 0
v -100 -320 0
v -80 -320 0
v -100 -340 0
v -120 -340 0
v -120 -320 0
v -100 -320 0
v -20 -360 0
v -40 -360 0
v -40 -340 0
v -20 -340 0
v -60 -360 0
v -80 -360 0
v -80 -340 0
v -60 -340 0
v -80 -360 0
v -100 -360 0
v -100 -340 0
v -80 -340 0
v -100 -360 0
v -120 -360 0
v -120 -340 0
v -100 -340 0
v -60 -380 0
v -80 -380 0
v -80 -360 0
v -60 -360 0
v -80 -380 0
v -100 -380 0
v -100 -360 0
v -80 -360 0
v -100 -380 0
v -120 -380 0
v -120 -360 0
v -100 -360 0

# Texture cooridinates (Count = 34)
vt 0.45 0.2
vt 0.5 0.2
vt 0.5 0.4
vt 0.45 0.4
vt 0.55 0.2
vt 0.55 0.4
vt 0.6 0.2
vt 0.6 0.4
vt 0.65 0.2
vt 0.65 0.4
vt 0.3 0.4
vt 0.35 0.4
vt 0.35 0.6
vt 0.3 0.6
vt 0 0.2
vt 0.05 0.2
vt 0.05 0.4
vt 0 0.4
vt 0.1 0.2
vt 0.1 0.4
vt 0.15 0.2
vt 0.15 0.4
vt 0 0
vt 0.05 0
vt 0.1 0
vt 0.15 0
vt 0.25 0.4
vt 0.25 0.6
vt 0.15 0.8
vt 0.2 0.8
vt 0.2 1
vt 0.15 1
vt 0.2 0.4
vt 0.2 0.6

# Normal
vn 0 0 -1

# Mesh description
g RoomTest_mesh_0003

# Faces
f 1/1/1 2/2/1 3/3/1 4/4/1
f 5/2/1 6/5/1 7/6/1 8/3/1
f 9/5/1 10/7/1 11/8/1 12/6/1
f 13/7/1 14/9/1 15/10/1 16/8/1
f 17/1/1 18/2/1 19/3/1 20/4/1
f 21/2/1 22/5/1 23/6/1 24/3/1
f 25/5/1 26/7/1 27/8/1 28/6/1
f 29/7/1 30/9/1 31/10/1 32/8/1
f 33/1/1 34/2/1 35/3/1 36/4/1
f 37/2/1 38/5/1 39/6/1 40/3/1
f 41/5/1 42/7/1 43/8/1 44/6/1
f 45/7/1 46/9/1 47/10/1 48/8/1
f 49/1/1 50/2/1 51/3/1 52/4/1
f 53/2/1 54/5/1 55/6/1 56/3/1
f 57/5/1 58/7/1 59/8/1 60/6/1
f 61/7/1 62/9/1 63/10/1 64/8/1
f 65/11/1 66/12/1 67/13/1 68/14/1
f 69/15/1 70/16/1 71/17/1 72/18/1
f 73/16/1 74/19/1 75/20/1 76/17/1
f 77/19/1 78/21/1 79/22/1 80/20/1
f 81/11/1 82/12/1 83/13/1 84/14/1
f 85/23/1 86/24/1 87/16/1 88/15/1
f 89/24/1 90/25/1 91/19/1 92/16/1
f 93/25/1 94/26/1 95/21/1 96/19/1
f 97/27/1 98/11/1 99/14/1 100/28/1
f 101/23/1 102/24/1 103/16/1 104/15/1
f 105/24/1 106/25/1 107/19/1 108/16/1
f 109/25/1 110/26/1 111/21/1 112/19/1
f 113/29/1 114/30/1 115/31/1 116/32/1
f 117/29/1 118/30/1 119/31/1 120/32/1
f 121/29/1 122/30/1 123/31/1 124/32/1
f 125/29/1 126/30/1 127/31/1 128/32/1
f 129/29/1 130/30/1 131/31/1 132/32/1
f 133/29/1 134/30/1 135/31/1 136/32/1
f 137/33/1 138/27/1 139/28/1 140/34/1
f 141/23/1 142/24/1 143/16/1 144/15/1
f 145/24/1 146/25/1 147/19/1 148/16/1
f 149/25/1 150/26/1 151/21/1 152/19/1
f 153/23/1 154/24/1 155/16/1 156/15/1
f 157/24/1 158/25/1 159/19/1 160/16/1
f 161/25/1 162/26/1 163/21/1 164/19/1
f 165/11/1 166/12/1 167/13/1 168/14/1
f 169/23/1 170/24/1 171/16/1 172/15/1
f 173/24/1 174/25/1 175/19/1 176/16/1
f 177/25/1 178/26/1 179/21/1 180/19/1
f 181/23/1 182/24/1 183/16/1 184/15/1
f 185/24/1 186/25/1 187/19/1 188/16/1
f 189/25/1 190/26/1 191/21/1 192/19/1
f 193/27/1 194/11/1 195/14/1 196/28/1
f 197/23/1 198/24/1 199/16/1 200/15/1
f 201/24/1 202/25/1 203/19/1 204/16/1
f 205/25/1 206/26/1 207/21/1 208/19/1
f 209/29/1 210/30/1 211/31/1 212/32/1
f 213/29/1 214/30/1 215/31/1 216/32/1
f 217/29/1 218/30/1 219/31/1 220/32/1
f 221/33/1 222/27/1 223/28/1 224/34/1
f 225/29/1 226/30/1 227/31/1 228/32/1
f 229/29/1 230/30/1 231/31/1 232/32/1
f 233/29/1 234/30/1 235/31/1 236/32/1
f 237/11/1 238/12/1 239/13/1 240/14/1
f 241/23/1 242/24/1 243/16/1 244/15/1
f 245/24/1 246/25/1 247/19/1 248/16/1
f 249/25/1 250/26/1 251/21/1 252/19/1
f 253/23/1 254/24/1 255/16/1 256/15/1
f 257/24/1 258/25/1 259/19/1 260/16/1
f 261/25/1 262/26/1 263/21/1 264/19/1
f 265/33/1 266/27/1 267/28/1 268/34/1
f 269/23/1 270/24/1 271/16/1 272/15/1
f 273/24/1 274/25/1 275/19/1 276/16/1
f 277/25/1 278/26/1 279/21/1 280/19/1
f 281/23/1 282/24/1 283/16/1 284/15/1
f 285/24/1 286/25/1 287/19/1 288/16/1
f 289/25/1 290/26/1 291/21/1 292/19/1

